<svg xmlns="http://www.w3.org/2000/svg" xmlns:xlink="http://www.w3.org/1999/xlink" preserveAspectRatio="xMidYMid" width="21.88" height="21.84" viewBox="0 0 21.88 21.84">
  <defs>
    <style>
      .cls-1 {
        fill: #fff;
        fill-rule: evenodd;
      }
    </style>
  </defs>
  <path d="M10.925,21.840 C10.925,21.840 6.817,14.338 6.828,14.351 C6.864,14.391 -0.000,10.266 -0.000,10.266 C-0.000,10.266 20.378,0.436 21.168,0.053 C21.680,-0.160 22.000,0.308 21.851,0.734 C21.680,1.074 10.925,21.840 10.925,21.840 ZM19.171,3.306 L8.205,13.693 C8.800,15.039 10.925,19.116 10.925,19.116 L19.171,3.306 ZM7.511,12.989 C7.511,12.989 7.526,13.003 7.529,13.006 L18.277,2.825 L2.731,10.266 C2.731,10.266 7.502,12.979 7.511,12.989 Z" class="cls-1"/>
</svg>
